<?xml version="1.0" encoding="UTF-8" standalone="no"?>
<svg
   xmlns:dc="http://purl.org/dc/elements/1.1/"
   xmlns:cc="http://creativecommons.org/ns#"
   xmlns:rdf="http://www.w3.org/1999/02/22-rdf-syntax-ns#"
   xmlns:svg="http://www.w3.org/2000/svg"
   xmlns="http://www.w3.org/2000/svg"
   xmlns:xlink="http://www.w3.org/1999/xlink"
   xmlns:sodipodi="http://sodipodi.sourceforge.net/DTD/sodipodi-0.dtd"
   xmlns:inkscape="http://www.inkscape.org/namespaces/inkscape"
   style="enable-background:new"
   id="svg80"
   version="1.1"
   height="285"
   width="225"
   viewBox="0 0 225.00001 285"
   sodipodi:docname="wolf_ui_moons.svg"
   inkscape:version="0.92.3 (2405546, 2018-03-11)">
  <sodipodi:namedview
     pagecolor="#ffffff"
     bordercolor="#666666"
     borderopacity="1"
     objecttolerance="10"
     gridtolerance="10"
     guidetolerance="10"
     inkscape:pageopacity="0"
     inkscape:pageshadow="2"
     inkscape:window-width="1920"
     inkscape:window-height="1017"
     id="namedview1184"
     showgrid="false"
     inkscape:zoom="1.422807"
     inkscape:cx="-44.022054"
     inkscape:cy="139.66791"
     inkscape:window-x="0"
     inkscape:window-y="26"
     inkscape:window-maximized="1"
     inkscape:current-layer="svg80" />
  <metadata
     id="metadata86">
    <rdf:RDF>
      <cc:Work
         rdf:about="">
        <dc:format>image/svg+xml</dc:format>
        <dc:type
           rdf:resource="http://purl.org/dc/dcmitype/StillImage" />
        <dc:title />
      </cc:Work>
    </rdf:RDF>
  </metadata>
  <defs
     id="defs84">
    <defs
       id="defs3">
      <path
         id="a"
         d="M 395.89999,745.09998 H 690.5 V 1024.9 H 395.89999 Z" />
    </defs>
    <clipPath
       id="b-8">
      <use
         y="0"
         x="0"
         style="overflow:visible"
         xlink:href="#a"
         width="100%"
         height="100%"
         overflow="visible"
         id="use5-1" />
    </clipPath>
  </defs>
  <g
     id="g1948">
    <g
       id="g1903">
      <g
         id="g220"
         style="display:inline;opacity:1"
         transform="translate(0,80.500031)">
        <path
           inkscape:connector-curvature="0"
           style="opacity:1;fill:#53606c;fill-opacity:1;fill-rule:nonzero;stroke:#000000;stroke-width:1.60000002;stroke-linecap:butt;stroke-linejoin:miter;stroke-miterlimit:5.71428585;stroke-dasharray:none;stroke-dashoffset:0;stroke-opacity:1"
           d="m 94.667889,152.40013 c 0,1.19148 0.49352,8.33292 0.64989,9.85673 0.44641,4.35028 1.5857,8.55369 2.60502,11.31288 1.01932,2.75919 2.469721,4.40709 2.351231,6.77584 -0.1354,2.70667 -0.494461,4.86876 0.15543,6.38518 0.64989,1.51642 3.66189,7.26259 4.96168,7.91248 1.29979,0.6499 1.91519,0.80748 4.49126,0.43984 2.44713,-0.34924 4.52635,0.15974 6.15109,1.8928 1.62473,1.73305 3.68338,4.58417 2.46385,5.68272 -1.43013,1.28827 -1.84137,0.21663 -3.79105,0 -1.94968,-0.21663 -2.058,0.21663 -2.92453,1.29979 -0.86652,1.08316 -1.51323,0.78994 -1.97483,0.72648 -2.72104,-0.75276 -1.38295,-0.61816 -3.65758,-0.94311 -2.27463,-0.32495 -3.35779,0.86652 -4.22431,0.86652 -0.86653,0 -4.116001,1.19148 -5.415781,-0.21663 -1.29979,-1.4081 -1.08316,-2.05799 -2.49126,-4.22431 -1.40811,-2.16631 -5.5241,-4.00768 -7.907047,-7.90704 -2.382945,-3.89937 -4.440942,-8.44862 -5.74073,-15.59746 -1.299788,-7.14883 -1.841367,-9.20683 -2.274629,-12.56461 -0.433263,-3.35779 3.032838,-13.1062 9.098515,-15.1642 6.065681,-2.05799 7.856731,-2.73775 7.473781,3.4661 z"
           id="path204" />
        <path
           inkscape:connector-curvature="0"
           style="opacity:1;fill:#53606c;fill-opacity:1;fill-rule:nonzero;stroke:#000000;stroke-width:1.60000002;stroke-linecap:butt;stroke-linejoin:miter;stroke-miterlimit:5.71428585;stroke-dasharray:none;stroke-dashoffset:0;stroke-opacity:1"
           d="m -4.1921986,212.6126 c 0,0 -4.5653137,-8.87749 -5.5609933,-15.08134 -0.9956791,-6.20385 -0.9492191,-12.87428 3.4930434,-13.94655 4.4422628,-1.07227 5.4809205,-0.57712 7.4200105,-2.33874 2.6673,-2.42319 0.543832,-4.57142 3.071327,-9.24345 2.527494,-4.67204 3.660136,-7.56035 4.979992,-9.86322 1.815745,-3.1681 2.450083,-4.96314 5.437942,-8.65476 5.771164,-7.40716 12.799083,-15.06227 16.668906,-19.93987 4.510441,-5.67533 7.667832,-10.43915 9.525127,-12.68778 3.509385,-5.2295 5.834233,-8.35516 7.917006,-11.42229 1.483241,-2.18425 6.103188,-6.90221 2.507032,-7.43217 3.143828,-1.83201 5.229979,-4.440469 5.903464,-5.069299 1.131221,-1.05622 3.987254,-4.58458 0.721305,-4.05894 1.897824,-1.4524 3.826462,-4.43829 -1.065139,-3.33097 2.231338,-2.41586 3.962434,-4.18762 4.038241,-5.747233 0.277026,-5.699416 1.110383,-5.068239 1.011073,-7.076201 -0.4575,-9.250336 1.714469,-17.365258 2.020831,-20.965023 0.151096,-1.77538 0.640363,-4.440446 1.454422,-6.641819 0.836529,-2.262138 5.278965,-6.700727 6.848443,-8.428906 2.754078,-3.032565 5.878986,-6.218232 9.590831,-8.193615 2.10029,-1.117741 4.655706,-1.605218 6.876844,-1.911581 2.22113,-0.306363 5.02326,-1.477656 6.24871,-2.626518 1.22545,-1.148861 6.050671,-6.893166 7.888841,-8.501572 1.83818,-1.608405 0.22978,-0.689316 2.91045,-3.446583 2.68068,-2.757266 2.37432,-2.757266 4.05931,-2.527494 1.685,0.229772 3.52318,2.680676 3.90613,3.599765 0.38295,0.919088 0.38295,1.455224 0.38295,1.455224 0,0 2.06795,1.914768 2.06795,2.833857 0,0.822912 0.002,1.291468 -0.22977,3.369992 -0.19159,1.717311 -0.26806,2.757267 -0.11488,4.289082 0.15318,1.531815 -0.26808,2.489199 -1.11058,4.097605 -0.84249,1.608405 -1.22544,3.025334 -0.7659,2.795561 0.45955,-0.229772 0.93824,-0.555283 2.24028,-0.555283 1.30204,0 2.42422,-0.957869 3.31255,-1.474371 1.07948,-0.627644 1.38845,-0.740609 2.10625,-1.416929 0.91908,-0.459544 2.91045,-1.684996 3.59976,-0.842498 0.49784,1.07227 1.37863,1.876473 1.7233,4.557149 0.53613,2.680676 0.42124,3.025334 0.11488,3.944423 -0.30636,0.919089 -0.82801,3.180422 -2.14454,4.289081 -2.18284,1.83818 -2.98704,2.795562 -4.25079,4.05931 -0.9942,0.994205 -0.98883,1.102319 -2.94874,3.21681 -2.76271,2.980601 -1.98881,4.364612 -2.78833,7.202718 -0.50528,1.793637 -1.52382,3.914564 -0.88081,6.226757 -3.14803,-0.395699 -2.97876,1.577606 -1.34804,3.867826 -2.16032,0.123906 -2.98044,0.626017 -1.39467,3.795943 -3.55068,-0.06248 -2.8652,8.547693 -0.83705,11.460075 -3.38765,-0.337088 -3.0475,8.393358 -0.16633,11.292818 -3.61118,-0.0547 -2.33808,8.285869 0.0711,11.058529 -2.90481,0.20463 -1.44526,5.31105 -0.37299,9.21718 1.07227,3.90612 2.40919,8.16599 0.21044,13.29497 -2.9395,6.85692 -10.289991,13.75609 -12.023041,16.89724 -1.73305,3.14116 -7.36546,11.37315 -10.939881,16.03072 -3.574416,4.65757 -10.289988,10.50662 -13.431142,14.94756 -3.141154,4.44094 -8.123674,8.9902 -8.123674,12.78125 0,3.79105 -1.299788,11.15651 -0.649894,13.97272 0.649894,2.81621 3.032838,7.36546 2.166313,8.23199 -0.866525,0.86652 -10.939882,3.89936 -17.763769,5.19915 -6.823886,1.29979 -6.173992,0.21663 -9.315147,1.94968 -3.141154,1.73305 -2.49126,3.03284 -6.715571,3.79105 -4.22431,0.75821 -13.431142,-0.21663 -17.22219,0.43326 -3.791048,0.6499 -3.574417,2.058 -7.040518,0.86653 -3.466101,-1.19147 -5.957361,0.43326 -8.23199,-3.14116 -2.274629,-3.57441 -5.0587246,-8.45966 -5.0587246,-8.45966 z"
           id="path206" />
        <path
           inkscape:connector-curvature="0"
           style="opacity:1;fill:#53606c;fill-opacity:1;fill-rule:nonzero;stroke:none;stroke-width:1.60000014;stroke-linecap:butt;stroke-linejoin:miter;stroke-miterlimit:5.71428585;stroke-dasharray:none;stroke-dashoffset:0;stroke-opacity:1"
           d="m 86.255399,58.629176 c -4.286462,-4.915068 -7.199106,-2.614356 -9.799693,-6.995285 -1.997489,-3.364955 -2.941641,-3.599083 -5.230632,-2.848492 -2.28899,0.75059 -7.032385,3.575303 -8.304221,5.293668 -1.271837,1.718364 -3.687285,4.264046 -5.13271,6.018678 -1.445425,1.754629 -4.729342,3.331005 -7.098728,5.134694 -1.625069,1.237081 -4.93922,2.012 -6.657031,4.324586 0.757161,1.281926 0.822545,1.98821 3.062773,3.608362 2.240228,1.620154 4.223156,1.772443 7.262506,2.080254 6.108748,0.618679 0.08453,0.289059 7.104685,-0.360484 7.020152,-0.649544 9.088574,1.299655 14.813562,-4.254368 5.724991,-5.554022 11.373042,-10.749319 9.979491,-12.001616 z"
           id="path208" />
        <path
           inkscape:connector-curvature="0"
           style="opacity:1;fill:#53606c;fill-opacity:1;fill-rule:nonzero;stroke:#000000;stroke-width:1.60000002;stroke-linecap:round;stroke-linejoin:miter;stroke-miterlimit:5.71428585;stroke-dasharray:none;stroke-dashoffset:0;stroke-opacity:1"
           d="m 55.240988,144.27646 c -0.541578,2.38295 -0.108315,3.57442 0.541579,6.06567 0.552945,2.11962 0.97484,3.35779 2.166313,7.14884 1.191472,3.79105 4.765889,16.24735 6.065677,18.41366 1.299788,2.16632 3.899364,5.5241 3.899364,7.69042 0,2.16631 -1.292091,6.02081 -0.31725,7.42891 0.974841,1.40811 4.433245,3.18602 4.758192,5.24402 0.324947,2.058 -0.108316,3.9048 0.866525,3.9048 0.974841,0 1.516419,0.35893 1.624735,1.44209 0.108316,1.08316 -0.324947,1.80194 0.974841,2.99341 1.299788,1.19148 4.765889,1.08316 7.473781,2.92453 2.707891,1.84136 4.440942,3.24947 5.307464,1.94968 0.86653,-1.29979 1.84137,1.4081 4.76589,0.64989 2.92452,-0.75821 3.24947,-0.86652 5.63242,-0.64989 2.382941,0.21663 3.574411,1.73305 3.249471,-0.43326 -0.32495,-2.16632 1.4081,0.21663 0.10831,-4.76589 -1.29979,-4.98252 -1.29979,-6.39063 -3.249471,-6.39063 -1.94968,0 -2.22037,0.11591 -4.76589,-0.43326 -1.67977,-0.36239 -3.50726,-2.30228 -4.65757,-4.11599 -1.15031,-1.81371 -1.624735,-2.49126 -3.357786,-5.84905 -1.444087,-2.79793 -0.216631,-7.25715 -1.841366,-11.91472 -1.624735,-4.65758 -2.382945,-7.14884 -3.466101,-12.67294 -1.083157,-5.52409 -2.166314,-11.26482 -3.357786,-14.29766 -1.191472,-3.03284 -3.682732,-8.3403 -7.257149,-10.07335"
           id="path210" />
        <path
           inkscape:connector-curvature="0"
           style="display:inline;fill:#38434f;stroke:#000000;stroke-width:4.32388926;stroke-linecap:round;stroke-linejoin:round;stroke-miterlimit:5.71428585;stroke-dasharray:none"
           id="path212"
           stroke-miterlimit="10"
           clip-path="url(#b-8)"
           d="m 483.97848,909.23006 c -2.2,0.9 -1.48059,3.57619 0.71941,7.07619 2.1,3.5 -0.33471,-0.44788 4.98412,8.65984 1.40118,2.39929 1.39331,2.04233 2.79331,1.34233 1.4,-0.6 2.79173,-3.05446 1.39173,-5.95446 -1.4,-2.9 -2.6674,-5.04303 -4.0674,-6.74303 -1.6,-1.7 -5.02117,-4.68087 -5.82117,-4.38087 z"
           transform="matrix(-0.12303175,-0.35090182,0.34653573,-0.12458186,-168.20251,321.98386)" />
        <path
           inkscape:connector-curvature="0"
           style="opacity:1;fill:#b3becd;fill-opacity:1;fill-rule:nonzero;stroke:#000000;stroke-width:1.60000002;stroke-linecap:round;stroke-linejoin:round;stroke-miterlimit:5.71428585;stroke-dasharray:none;stroke-dashoffset:0;stroke-opacity:1"
           d="m 118.4902,31.001743 c 0.59599,1.855041 0.71663,1.868046 0.62185,2.545019 -0.0948,0.676973 1.65181,-0.704052 1.63827,-0.798828 -0.0135,-0.09478 -2.26012,-1.746191 -2.26012,-1.746191 z"
           id="path214" />
        <path
           inkscape:connector-curvature="0"
           style="opacity:1;fill:#53606c;fill-opacity:1;fill-rule:nonzero;stroke:#000000;stroke-width:1.60000002;stroke-linecap:round;stroke-linejoin:round;stroke-miterlimit:5.71428585;stroke-dasharray:none;stroke-dashoffset:0;stroke-opacity:1"
           d="m -7.5069119,204.4779 c 2.8168736,1.16494 7.4506129,2.16062 9.2121999,3.9988 1.761587,1.83817 3.446584,2.98704 6.663395,4.97839 3.216811,1.99136 6.739985,2.37432 10.263159,2.5275 3.523174,0.15318 7.812255,1.53181 8.961116,2.52749 1.148861,0.99568 1.225452,2.83386 2.450904,3.82954 1.225452,0.99568 1.07227,0.99568 3.599765,0.45954 2.527494,-0.53613 3.829537,-1.91476 5.897486,-3.21681 2.06795,-1.30204 2.221132,-0.99568 5.13158,-1.6084 2.910448,-0.61273 4.289081,-0.91909 4.289081,-0.91909 -0.689316,-1.07227 -2.297722,-5.36135 -4.518853,-6.05067 -2.221132,-0.68932 -2.765211,-1.05489 -4.711458,-1.13957 -2.489666,-0.10831 -2.717844,0.68003 -3.790114,0.68003 -1.072271,0 -3.369993,0 -4.289082,-0.68932 -0.919089,-0.68932 -3.446583,-3.75295 -5.667714,-6.12726 -2.221132,-2.37431 -2.251263,-3.43729 -4.778757,-4.43297 -2.527495,-0.99568 -4.077894,-0.85498 -4.595445,-2.09583 -1.109858,-2.66093 -0.91073,-3.30269 -3.285043,-5.44723 -2.374313,-2.14454 -2.730051,-2.16313 -5.71709,-5.37994 -2.987039,-3.21681 -5.07958,-4.49154 -6.611394,-4.64472"
           id="path216" />
      </g>
      <g
         transform="translate(0,80.500031)"
         style="display:inline;opacity:1"
         id="layer5">
        <path
           inkscape:connector-curvature="0"
           id="path4804"
           transform="translate(0,-51.500031)"
           d="m 124.4043,83.052734 c -3.59976,0.842498 -0.4047,4.753888 -2.62583,9.732286 -1.91477,4.595445 -7.20928,5.349402 -10.25354,11.27577 -0.78505,1.52829 -3.09688,5.97801 -1.16844,9.68334 -1.29752,-0.82748 -1.82836,-1.74935 -2.60635,-0.96174 -1.11668,1.13048 -2.0535,4.46222 -0.66507,5.47126 -2.50777,-1.04523 -2.69896,3.94327 -0.85164,5.4741 -1.55107,-0.71691 -2.29958,-0.33989 -2.39108,4.40225 -0.0543,2.81257 0.66924,5.43939 1.50554,6.28223 -2.6743,1.16728 -2.07742,4.76368 -2.16975,5.83997 -0.14656,1.70836 0.49618,4.08567 2.16391,5.84084 -3.92339,1.4488 -2.04645,9.27735 -1.56093,11.06592 -2.09842,2.83857 -1.76343,7.06541 -3.901649,11.02936 -0.481212,0.8921 -4.08204,2.15373 -2.321369,8.34746 -2.984396,-2.50431 -5.548365,0.83258 -6.777602,3.14128 -1.230182,2.31047 -2.762436,3.58394 -0.27371,9.6313 -3.395289,-3.66885 -4.621475,3.04589 -5.393509,5.18383 -1.991362,5.51454 -2.565837,10.87554 -5.169922,14.70508 0.440028,6.40464 1.026835,5.31113 2.144532,9.99414 0.765907,3.33169 2.25809,7.00919 2.564453,8.54101 0.306363,1.53181 0.655878,4.48976 0.919922,8.57813 1.183133,3.70542 5.207858,9.6496 7.199218,12.82812 1.55915,1.00231 5.730152,0.065 6.888672,0.33203 0.847124,0.49714 1.450534,1.19535 1.650394,1.875 0.63978,2.17563 -0.051,3.8232 1.14453,4.70703 0.80823,0.59751 2.39092,-1.54973 3.20117,-1.07226 1.90393,1.12198 4.3127,1.34103 5.32813,1.23437 1.54813,-1.17409 1.6759,-1.79242 2.34374,-2.20117 2.40091,0.0787 3.34386,-0.36099 5.27735,0.0332 2.36919,0.48299 -1.70391,-2.88036 -1.30274,-2.94141 1.45722,0.0157 -4.29215,-4.16893 -3.60742,-3.97266 0.51268,0.14696 -1.89215,-0.43267 -4.50195,-0.7539 -2.42347,-0.29829 -5.06723,-0.30585 -4.58789,-0.99219 -1.83818,-2.68067 -4.03648,-5.62647 -5.134767,-8.3086 0.701597,-2.64382 1.429847,-4.49252 0.960937,-7.35546 -1.97181,-2.96864 -3.634704,-9.99027 -3.984374,-11.60352 -1.18466,-5.46552 -1.721267,-11.09068 -1.779297,-14.21875 -0.058,-3.12807 8.519231,-12.77927 12.501951,-18.14062 1.48565,-1.99991 2.48034,-4.12583 3.14453,-6.00782 0.37042,-1.82277 0.81483,-2.6268 0.89847,-5.76367 -0.11522,-3.72522 -1.11115,-6.13076 -2.3005,-9.59067 -0.46745,-1.35987 -0.0486,-3.89911 1.40712,-6.29745 -2.60196,-2.42144 -3.14603,-8.02525 -0.70184,-11.55951 -1.23216,-2.53858 -1.58723,-5.274 -1.62548,-6.42167 -0.0724,-2.17207 0.33573,-2.50511 1.85293,-4.75787 -1.63806,-3.09359 -2.10874,-8.22081 -0.16739,-10.02517 0.11368,-0.75788 0.51539,-1.0504 0.58194,-1.53318 0.20244,-1.46876 0.18148,-1.86771 1.52458,-3.751 -0.19148,-2.71896 0.0203,-2.41455 2.0882,-4.55908 0.76591,-3.06364 1.01426,-7.7728 2.08653,-9.76416 1.07227,-1.99136 1.83761,-3.67606 4.74805,-6.126958 2.91045,-2.450904 4.36634,-2.37331 5.5918,-5.896484 1.22545,-3.523174 1.1273,-4.054962 0.22851,-7.201172 z"
           style="display:inline;opacity:1;fill:#38434f;fill-opacity:1;fill-rule:nonzero;stroke:none;stroke-width:1;stroke-linecap:butt;stroke-linejoin:miter;stroke-miterlimit:4;stroke-dasharray:none;stroke-dashoffset:0;stroke-opacity:1" />
        <path
           inkscape:connector-curvature="0"
           id="path4831"
           d="m 64.659007,176.90575 c 0,0 -1.442365,0.78341 -2.377501,3.43983 -1.07227,3.04597 -1.468365,5.69361 -1.883043,10.30312 -0.262216,2.91477 0.324947,8.66526 -3.574417,10.72325 -3.899364,2.058 -6.7548,6.697 -9.679323,7.45521 -2.924523,0.75821 -3.76364,1.56672 -3.76364,1.56672 l 2.80194,1.58644 c 0,0 1.847936,4.86106 3.472671,5.18601 1.624735,0.32494 9.592974,-2.05143 11.759287,-3.02627 2.166313,-0.97484 6.715571,-0.10831 5.74073,-2.59957 -0.974841,-2.49126 -2.166313,-7.69042 -2.382945,-10.83157 -0.216631,-3.14115 0.866526,-9.85673 1.408104,-12.67293 0.541578,-2.81621 1.733051,-3.03284 1.516419,-4.116 -0.216631,-1.08315 -3.038282,-7.01424 -3.038282,-7.01424 z"
           style="opacity:1;fill:#38434f;fill-opacity:1;fill-rule:nonzero;stroke:none;stroke-width:1;stroke-linecap:butt;stroke-linejoin:miter;stroke-miterlimit:4;stroke-dasharray:none;stroke-dashoffset:0;stroke-opacity:1" />
        <path
           inkscape:connector-curvature="0"
           id="path4961"
           d="m 44.032384,69.557025 c 1.043651,-0.916261 2.182885,-0.110561 8.220944,-1.764703 2.46348,-0.674873 7.285923,-0.64071 4.851077,2.750809 4.137046,-1.897047 12.420737,-6.659171 15.66493,-6.872883 2.295949,-0.151246 3.959203,2.177556 3.449386,3.976025 -0.714177,2.519383 -4.543756,5.513642 -5.868884,6.018552 -3.409582,1.299144 -5.376584,0.741504 -9.263623,0.877148 -3.887037,0.135647 -7.938225,1.555292 -10.744853,0.213868 -2.806627,-1.341424 -6.308977,-5.198816 -6.308977,-5.198816 z"
           style="opacity:1;fill:#38434f;fill-opacity:1;fill-rule:nonzero;stroke:none;stroke-width:1.60000014;stroke-linecap:round;stroke-linejoin:round;stroke-miterlimit:5.71428585;stroke-dasharray:none;stroke-dashoffset:0;stroke-opacity:1" />
      </g>
      <path
         style="opacity:1;fill:none;fill-opacity:1;fill-rule:nonzero;stroke:#000000;stroke-width:1.60000002;stroke-linecap:butt;stroke-linejoin:miter;stroke-miterlimit:5.71428585;stroke-dasharray:none;stroke-dashoffset:0;stroke-opacity:1"
         d="m 94.667889,232.90016 c 0,1.19148 0.49352,8.33292 0.64989,9.85673 0.44641,4.35028 1.5857,8.55369 2.60502,11.31288 1.01932,2.75919 2.469721,4.40709 2.351231,6.77584 -0.1354,2.70667 -0.494461,4.86876 0.15543,6.38518 0.64989,1.51642 3.66189,7.26259 4.96168,7.91248 1.29979,0.6499 1.91519,0.80748 4.49126,0.43984 2.44713,-0.34924 4.52635,0.15974 6.15109,1.8928 1.62473,1.73305 3.68338,4.58417 2.46385,5.68272 -1.43013,1.28827 -1.84137,0.21663 -3.79105,0 -1.94968,-0.21663 -2.058,0.21663 -2.92453,1.29979 -0.86652,1.08316 -1.51323,0.78994 -1.97483,0.72648 -2.72104,-0.75276 -1.38295,-0.61816 -3.65758,-0.94311 -2.27463,-0.32495 -3.35779,0.86652 -4.22431,0.86652"
         id="path4802"
         inkscape:connector-curvature="0" />
      <path
         style="opacity:1;fill:none;fill-opacity:1;fill-rule:nonzero;stroke:#000000;stroke-width:1.60000002;stroke-linecap:butt;stroke-linejoin:miter;stroke-miterlimit:5.71428585;stroke-dasharray:none;stroke-dashoffset:0;stroke-opacity:1"
         d="m 68.1232,264.66074 c -1.436796,1.97313 -2.483908,3.8704 -2.483908,5.60833 0,3.79105 -1.299788,11.15651 -0.649894,13.97272 0.649894,2.81621 3.032838,7.36546 2.166313,8.23199 -0.866525,0.86652 -10.939882,3.89936 -17.763769,5.19915 -6.823886,1.29979 -6.173992,0.21663 -9.315147,1.94968 -3.141154,1.73305 -2.49126,3.03284 -6.715571,3.79105 -4.22431,0.75821 -13.431142,-0.21663 -17.22219,0.43326 -3.791048,0.6499 -3.574417,2.058 -7.040518,0.86653 -3.466101,-1.19147 -5.957361,0.43326 -8.23199,-3.14116 -2.274629,-3.57441 -5.0587246,-8.45966 -5.0587246,-8.45966 0,0 -4.5653137,-8.87749 -5.5609933,-15.08134 -0.9956791,-6.20385 -0.9492191,-12.87428 3.4930434,-13.94655 4.4422628,-1.07227 5.4809205,-0.57712 7.4200105,-2.33874 2.6673,-2.42319 0.543832,-4.57142 3.071327,-9.24345 2.527494,-4.67204 3.660136,-7.56035 4.979992,-9.86322 1.815745,-3.1681 2.450083,-4.96314 5.437942,-8.65476 5.771164,-7.40716 12.799083,-15.06227 16.668906,-19.93987 4.510441,-5.67533 7.667832,-10.43915 9.525127,-12.68778"
         id="path3989"
         inkscape:connector-curvature="0" />
      <path
         style="opacity:1;fill:none;fill-opacity:1;fill-rule:nonzero;stroke:#000000;stroke-width:1.60000002;stroke-linecap:butt;stroke-linejoin:miter;stroke-miterlimit:5.71428585;stroke-dasharray:none;stroke-dashoffset:0;stroke-opacity:1"
         d="m 64.014557,256.40466 c 1.299788,2.16632 3.899364,5.5241 3.899364,7.69042 0,2.16631 -1.292091,6.02081 -0.31725,7.42891 0.974841,1.40811 4.433245,3.18602 4.758192,5.24402 0.324947,2.058 -0.108316,3.9048 0.866525,3.9048 0.974841,0 1.516419,0.35893 1.624735,1.44209 0.108316,1.08316 -0.324947,1.80194 0.974841,2.99341 1.299788,1.19148 4.765889,1.08316 7.473781,2.92453 2.707891,1.84136 4.440942,3.24947 5.307464,1.94968 0.86653,-1.29979 1.84137,1.4081 4.76589,0.64989 2.92452,-0.75821 3.24947,-0.86652 5.63242,-0.64989 2.382941,0.21663 3.574411,1.73305 3.249471,-0.43326 -0.32495,-2.16632 1.4081,0.21663 0.10831,-4.76589 -1.29979,-4.98252 -1.29979,-6.39063 -3.249471,-6.39063 -1.94968,0 -2.22037,0.11591 -4.76589,-0.43326 -1.67977,-0.36239 -3.50726,-2.30228 -4.65757,-4.11599 -1.15031,-1.81371 -1.624735,-2.49126 -3.357786,-5.84905 -1.444087,-2.79793 -0.216631,-7.25715 -1.841366,-11.91472 -1.624735,-4.65758 -2.382945,-7.14884 -3.466101,-12.67294 -1.083157,-5.52409 -2.166314,-11.26482 -3.357786,-14.29766"
         id="path4800"
         inkscape:connector-curvature="0" />
      <path
         style="opacity:1;fill:none;fill-opacity:1;fill-rule:nonzero;stroke:#000000;stroke-width:1.60000002;stroke-linecap:round;stroke-linejoin:round;stroke-miterlimit:5.71428585;stroke-dasharray:none;stroke-dashoffset:0;stroke-opacity:1"
         d="m 118.4902,111.50177 c 0.59599,1.85505 0.71663,1.86805 0.62185,2.54502 -0.0948,0.67698 1.65181,-0.70405 1.63827,-0.79882 -0.0135,-0.0948 -2.26012,-1.7462 -2.26012,-1.7462 z"
         id="path4875"
         inkscape:connector-curvature="0" />
      <path
         style="opacity:1;fill:none;fill-opacity:1;fill-rule:nonzero;stroke:#000000;stroke-width:1.60000002;stroke-linecap:round;stroke-linejoin:round;stroke-miterlimit:5.71428585;stroke-dasharray:none;stroke-dashoffset:0;stroke-opacity:1"
         d="m -7.5069119,284.97793 c 2.8168736,1.16494 7.4506129,2.16062 9.2121999,3.9988 1.761587,1.83817 3.446584,2.98704 6.663395,4.97839 3.216811,1.99136 6.739985,2.37432 10.263159,2.5275 3.523174,0.15318 7.812255,1.53181 8.961116,2.52749 1.148861,0.99568 1.225452,2.83386 2.450904,3.82954 1.225452,0.99568 1.07227,0.99568 3.599765,0.45954 2.527494,-0.53613 3.829537,-1.91476 5.897486,-3.21681 2.06795,-1.30204 2.221132,-0.99568 5.13158,-1.6084 2.910448,-0.61273 4.289081,-0.91909 4.289081,-0.91909 -0.689316,-1.07227 -2.297722,-5.36135 -4.518853,-6.05067 -2.221132,-0.68932 -2.765211,-1.05489 -4.711458,-1.13957 -2.489666,-0.10831 -2.717844,0.68003 -3.790114,0.68003 -1.072271,0 -3.369993,0 -4.289082,-0.68932 -0.919089,-0.68932 -3.446583,-3.75295 -5.667714,-6.12726 -2.221132,-2.37431 -2.251263,-3.43729 -4.778757,-4.43297 -2.527495,-0.99568 -4.077894,-0.85498 -4.595445,-2.09583 -1.109858,-2.66093 -0.91073,-3.30269 -3.285043,-5.44723 -2.374313,-2.14454 -2.730051,-2.16313 -5.71709,-5.37994 -2.987039,-3.21681 -5.07958,-4.49154 -6.611394,-4.64472"
         id="path4886"
         inkscape:connector-curvature="0" />
      <path
         style="display:inline;opacity:1;fill:none;fill-opacity:1;fill-rule:nonzero;stroke:#000000;stroke-width:1.60000002;stroke-linecap:butt;stroke-linejoin:miter;stroke-miterlimit:5.71428585;stroke-dasharray:none;stroke-dashoffset:0;stroke-opacity:1;enable-background:new"
         d="m 121.5698,112.97121 c 0.91908,-0.45954 2.91045,-1.685 3.59976,-0.8425 0.49784,1.07227 1.37863,1.87648 1.7233,4.55715 0.53613,2.68068 0.42124,3.02534 0.11488,3.94442 -0.30636,0.91909 -0.82801,3.18043 -2.14454,4.28909 -2.18284,1.83818 -2.98704,2.79556 -4.25079,4.0593 -0.9942,0.99421 -0.98883,1.10232 -2.94874,3.21682 -2.76271,2.9806 -1.98881,4.36461 -2.78833,7.20271 -0.50528,1.79364 -1.52382,3.91457 -0.88081,6.22676 -3.14803,-0.3957 -2.97876,1.57761 -1.34804,3.86783 -2.16032,0.1239 -2.98044,0.62601 -1.39467,3.79594 -3.55068,-0.0625 -2.8652,8.54769 -0.83705,11.46007 -3.38765,-0.33708 -3.29121,8.17673 -0.16633,11.29282 -3.96978,0.0562 -1.87774,8.85453 0.0711,11.05853 -2.73576,0.52512 -1.44526,5.31105 -0.37299,9.21718 1.07227,3.90612 2.40919,8.16599 0.21044,13.29497 -2.9395,6.85692 -10.289991,13.75609 -12.023041,16.89724 -1.73305,3.14116 -7.365463,11.37315 -10.939881,16.03072 -1.35495,1.76554 -3.161262,3.70229 -5.053142,5.66864"
         id="path976"
         inkscape:connector-curvature="0" />
      <path
         style="display:inline;fill:none;stroke:#000000;stroke-width:4.32388926;stroke-linecap:round;stroke-linejoin:round;stroke-miterlimit:5.71428585;stroke-dasharray:none"
         id="path46-3"
         stroke-miterlimit="10"
         clip-path="url(#b-8)"
         d="m 483.97848,909.23006 c -2.2,0.9 -1.48059,3.57619 0.71941,7.07619 2.1,3.5 -0.33471,-0.44788 4.98412,8.65984 1.40118,2.39929 1.39331,2.04233 2.79331,1.34233 1.4,-0.6 2.79173,-3.05446 1.39173,-5.95446 -1.4,-2.9 -2.6674,-5.04303 -4.0674,-6.74303 -1.6,-1.7 -5.02117,-4.68087 -5.82117,-4.38087 z"
         transform="matrix(-0.12303175,-0.35090182,0.34653573,-0.12458186,-168.20251,402.48389)"
         inkscape:connector-curvature="0" />
      <path
         style="opacity:1;fill:none;fill-opacity:1;fill-rule:nonzero;stroke:#000000;stroke-width:1.59874022;stroke-linecap:round;stroke-linejoin:round;stroke-miterlimit:5.71428585;stroke-dasharray:none;stroke-dashoffset:0;stroke-opacity:1"
         d="m 72.605657,129.25189 c -2.813326,0.97616 -7.301138,2.68045 -9.404945,4.66035 -2.10381,1.97989 -3.347509,4.49686 -5.918345,6.73814 -2.248163,1.95996 -8.054374,6.0329 -9.89379,6.44551 -1.839418,0.4126 -3.67613,2.47824 -3.483414,3.72023 0.192716,1.24199 6.725759,4.78988 8.592209,5.05705 3.139655,0.44944 5.999697,-0.67564 7.877657,-0.83985 1.87796,-0.16421 3.341216,0.33973 6.383678,-0.10022 3.009698,-0.43521 4.001248,-0.76301 5.189245,-1.83158 1.860858,-1.67378 4.070201,-3.29315 7.668974,-3.8272"
         id="path1002"
         inkscape:connector-curvature="0" />
    </g>
    <g
       id="layer7"
       transform="translate(0,29)"
       style="opacity:1">
      <ellipse
         style="color:#000000;clip-rule:nonzero;display:inline;overflow:visible;visibility:visible;opacity:1;isolation:auto;mix-blend-mode:normal;color-interpolation:sRGB;color-interpolation-filters:linearRGB;solid-color:#000000;solid-opacity:1;fill:#efe7e7;fill-opacity:1;fill-rule:nonzero;stroke:none;stroke-width:1.60000002;stroke-linecap:butt;stroke-linejoin:miter;stroke-miterlimit:4;stroke-dasharray:none;stroke-dashoffset:0;stroke-opacity:1;color-rendering:auto;image-rendering:auto;shape-rendering:auto;text-rendering:auto;enable-background:accumulate"
         id="path1001-6-7"
         cx="197.97139"
         cy="42.745049"
         rx="25.644369"
         ry="24.194715" />
      <ellipse
         style="color:#000000;clip-rule:nonzero;display:inline;overflow:visible;visibility:visible;opacity:1;isolation:auto;mix-blend-mode:normal;color-interpolation:sRGB;color-interpolation-filters:linearRGB;solid-color:#000000;solid-opacity:1;fill:#f8f6e7;fill-opacity:1;fill-rule:nonzero;stroke:none;stroke-width:1.60000002;stroke-linecap:butt;stroke-linejoin:miter;stroke-miterlimit:4;stroke-dasharray:none;stroke-dashoffset:0;stroke-opacity:1;color-rendering:auto;image-rendering:auto;shape-rendering:auto;text-rendering:auto;enable-background:accumulate"
         id="path1001"
         cx="171.42123"
         cy="3.1912434"
         rx="29.612629"
         ry="27.94544" />
      <ellipse
         style="color:#000000;clip-rule:nonzero;display:inline;overflow:visible;visibility:visible;opacity:1;isolation:auto;mix-blend-mode:normal;color-interpolation:sRGB;color-interpolation-filters:linearRGB;solid-color:#000000;solid-opacity:1;fill:#e7f0f8;fill-opacity:1;fill-rule:nonzero;stroke:none;stroke-width:1.60000002;stroke-linecap:butt;stroke-linejoin:miter;stroke-miterlimit:4;stroke-dasharray:none;stroke-dashoffset:0;stroke-opacity:0.32034637;color-rendering:auto;image-rendering:auto;shape-rendering:auto;text-rendering:auto;enable-background:accumulate"
         id="path1001-6"
         cx="101.16682"
         cy="-7.0584226"
         rx="16.247349"
         ry="15.312831" />
    </g>
    <g
       id="layer8"
       style="display:inline">
      <path
         id="path1052"
         d="m 151.36184,12.092585 c -2.59957,0 -5.89616,5.946476 -8.38517,14.115016 1.29978,7.798727 6.52297,2.990227 9.12254,5.589803 2.59958,2.599576 0.40924,9.249443 -2.19033,11.849019 -2.59958,2.599576 4.58877,11.734042 8.01311,3.831404 5.22523,-4.459128 6.76828,-6.729787 10.18392,-12.496657 0.86652,-5.632415 -7.73567,-4.135513 -5.13609,-8.46814 7.96093,-1.72854 19.65039,-14.061518 10.98513,-17.5276194 -9.56194,-3.82478 -6.43226,1.3219974 -11.80959,0.5316264 -4.88744,-0.7183657 -10.78352,2.575548 -10.78352,2.575548 z"
         style="display:inline;opacity:1;fill:#abaea8;fill-opacity:1;fill-rule:nonzero;stroke:none;stroke-width:1.60000002;stroke-linecap:round;stroke-linejoin:round;stroke-miterlimit:4;stroke-dasharray:none;stroke-dashoffset:0;stroke-opacity:1;enable-background:new"
         inkscape:connector-curvature="0" />
      <path
         style="opacity:1;fill:#abaea8;fill-opacity:1;fill-rule:nonzero;stroke:none;stroke-width:1.60000002;stroke-linecap:round;stroke-linejoin:round;stroke-miterlimit:4;stroke-dasharray:none;stroke-dashoffset:0;stroke-opacity:1"
         d="m 174.60485,21.143047 c 3.03284,3.466101 3.24947,6.282309 6.9322,5.849046 3.68273,-0.433263 5.41578,-3.466101 6.49894,-1.733051 1.08316,1.733051 0.84475,6.91043 4.31085,7.993587 3.4661,1.083157 4.78766,0.455035 5.65419,-4.094223 0.86653,-4.549258 -0.26694,-6.754994 -2.86652,-8.488044 -2.59958,-1.733051 -0.16632,-2.776785 -4.93221,-2.993416 -4.76589,-0.216631 -1.29979,1.516419 -6.06567,1.083157 -4.76589,-0.433263 -8.88189,-3.899364 -8.88189,-3.899364 0,0 -1.35394,-5.7948881 -1.35394,0.05416 0,5.849046 -1.28685,3.952835 0.70405,6.22815 z"
         id="path1060"
         inkscape:connector-curvature="0" />
      <path
         style="opacity:1;fill:#abaea8;fill-opacity:1;fill-rule:nonzero;stroke:none;stroke-width:1.60000002;stroke-linecap:round;stroke-linejoin:round;stroke-miterlimit:4;stroke-dasharray:none;stroke-dashoffset:0;stroke-opacity:1"
         d="m 187.03459,10.958335 c -1.11631,-0.0889 -3.21682,0.459545 -2.29773,2.450904 0.91909,1.991359 4.28908,5.054988 6.12726,3.216811 1.83818,-1.838178 -1.55666,-5.486709 -3.82953,-5.667715 z"
         id="path1062"
         inkscape:connector-curvature="0" />
      <path
         style="opacity:1;fill:#abaea8;fill-opacity:1;fill-rule:nonzero;stroke:none;stroke-width:1.60000002;stroke-linecap:round;stroke-linejoin:round;stroke-miterlimit:4;stroke-dasharray:none;stroke-dashoffset:0;stroke-opacity:1;enable-background:new"
         d="m 188.33669,44.465793 c -0.0391,-1.119161 -0.82375,-3.143332 -2.69718,-2.002929 -1.87342,1.140404 -4.53233,4.838091 -2.49633,6.454419 2.036,1.616328 5.27314,-2.172815 5.19351,-4.45149 z"
         id="path1062-2"
         inkscape:connector-curvature="0" />
      <path
         style="opacity:1;fill:#abaea8;fill-opacity:1;fill-rule:nonzero;stroke:none;stroke-width:1;stroke-linecap:round;stroke-linejoin:round;stroke-miterlimit:4;stroke-dasharray:none;stroke-dashoffset:0;stroke-opacity:1"
         d="m 181.17539,33.093058 c -2.93342,-0.277327 -5.93578,2.067951 -4.0976,5.897488 1.83818,3.829537 4.63374,5.323057 7.39101,2.718971 2.75727,-2.604085 3.29748,-4.466079 2.33601,-6.127259 -1.30982,-2.263028 -3.68771,-2.305629 -5.62942,-2.4892 z"
         id="path1260"
         inkscape:connector-curvature="0" />
      <path
         style="opacity:1;fill:#abaea8;fill-opacity:1;fill-rule:nonzero;stroke:none;stroke-width:1;stroke-linecap:round;stroke-linejoin:round;stroke-miterlimit:4;stroke-dasharray:none;stroke-dashoffset:0;stroke-opacity:1"
         d="m 169.95419,57.670989 c 3.36999,0.459544 4.69284,0.438778 5.28542,-0.451847 0.62636,-0.941385 -3.25926,-1.938434 -4.7688,-2.198699 -1.57058,-0.270789 -3.99812,-0.595736 -4.9188,0.433263 -0.81713,0.913256 2.70914,1.986413 4.40218,2.217283 z"
         id="path1262"
         inkscape:connector-curvature="0" />
      <ellipse
         style="opacity:1;fill:#abaea8;fill-opacity:1;fill-rule:nonzero;stroke:none;stroke-width:1;stroke-linecap:round;stroke-linejoin:round;stroke-miterlimit:4;stroke-dasharray:none;stroke-dashoffset:0;stroke-opacity:1"
         id="path1264"
         cx="167.77202"
         cy="41.249969"
         rx="4.9401026"
         ry="5.9357824" />
      <path
         style="opacity:1;fill:#a98a88;fill-opacity:1;fill-rule:nonzero;stroke:none;stroke-width:1.5987401;stroke-linecap:round;stroke-linejoin:round;stroke-miterlimit:5.71428585;stroke-dasharray:none;stroke-dashoffset:0;stroke-opacity:1"
         d="m 206.44965,48.871857 c -5.03283,-1.225452 -15.50246,2.243973 -16.09323,9.889384 4.59554,-7.986176 10.53511,-8.434403 15.62097,-6.290464 3.91007,1.648284 8.4188,5.535302 10.51748,7.835419 3.13325,3.433977 4.73433,11.277352 2.21051,17.988759 -2.53277,6.735215 -11.24555,10.351981 -16.00191,10.722977 -8.3845,0.653991 0.65685,-9.830081 -1.91874,-15.455453 -2.77809,-6.067649 -11.53524,-9.471999 -16.39431,-8.172211 -4.32459,1.156815 -8.26477,3.663709 -8.65643,9.487724 -0.32855,4.885647 3.25346,10.537316 4.53818,12.810295 2.81621,4.98252 6.54062,4.995661 7.40715,6.078817 0.86652,1.083157 15.0876,4.713326 20.93665,0.813962 5.84904,-3.899364 11.05942,-8.333442 12.99787,-14.081036 1.76159,-5.223179 3.41579,-10.157645 0.81622,-16.656585 -3.44207,-6.57553 -6.66526,-10.422331 -9.91473,-11.722118 -3.24947,-1.299788 -6.06568,-3.24947 -6.06568,-3.24947 z"
         id="path1013"
         inkscape:connector-curvature="0" />
    </g>
    <g
       transform="translate(0,29)"
       id="g1056"
       style="display:inline;opacity:1">
      <path
         style="color:#000000;clip-rule:nonzero;display:inline;overflow:visible;visibility:visible;opacity:1;isolation:auto;mix-blend-mode:normal;color-interpolation:sRGB;color-interpolation-filters:linearRGB;solid-color:#000000;solid-opacity:1;fill:none;fill-opacity:1;fill-rule:nonzero;stroke:#6e6e6e;stroke-width:1.60000002;stroke-linecap:butt;stroke-linejoin:miter;stroke-miterlimit:4;stroke-dasharray:none;stroke-dashoffset:0;stroke-opacity:1;color-rendering:auto;image-rendering:auto;shape-rendering:auto;text-rendering:auto;enable-background:accumulate"
         d="m 196.45652,18.591847 c 0.50123,-0.02755 1.00632,-0.04151 1.51487,-0.04151 14.16299,1e-6 25.64437,10.832343 25.64437,24.194716 0,13.362372 -11.48138,24.194716 -25.64437,24.194715 -14.16299,10e-7 -25.64437,-10.832343 -25.64437,-24.194715 0,-4.23255 1.15194,-8.211259 3.17617,-11.672277"
         id="ellipse1046"
         inkscape:connector-curvature="0" />
      <ellipse
         ry="27.94544"
         rx="29.612629"
         cy="3.1912434"
         cx="171.42123"
         id="ellipse1048"
         style="color:#000000;clip-rule:nonzero;display:inline;overflow:visible;visibility:visible;opacity:1;isolation:auto;mix-blend-mode:normal;color-interpolation:sRGB;color-interpolation-filters:linearRGB;solid-color:#000000;solid-opacity:1;fill:none;fill-opacity:1;fill-rule:nonzero;stroke:#6e6e6e;stroke-width:1.60000002;stroke-linecap:butt;stroke-linejoin:miter;stroke-miterlimit:4;stroke-dasharray:none;stroke-dashoffset:0;stroke-opacity:1;color-rendering:auto;image-rendering:auto;shape-rendering:auto;text-rendering:auto;enable-background:accumulate" />
      <ellipse
         ry="15.312831"
         rx="16.247349"
         cy="-7.0584226"
         cx="101.16682"
         id="ellipse1050"
         style="color:#000000;clip-rule:nonzero;display:inline;overflow:visible;visibility:visible;opacity:1;isolation:auto;mix-blend-mode:normal;color-interpolation:sRGB;color-interpolation-filters:linearRGB;solid-color:#000000;solid-opacity:1;fill:none;fill-opacity:1;fill-rule:nonzero;stroke:#6e6e6e;stroke-width:1.60000002;stroke-linecap:butt;stroke-linejoin:miter;stroke-miterlimit:4;stroke-dasharray:none;stroke-dashoffset:0;stroke-opacity:1;color-rendering:auto;image-rendering:auto;shape-rendering:auto;text-rendering:auto;enable-background:accumulate" />
    </g>
    <g
       id="layer10"
       style="display:inline">
      <path
         style="opacity:1;fill:#a8a9ae;fill-opacity:1;fill-rule:nonzero;stroke:none;stroke-width:1;stroke-linecap:round;stroke-linejoin:round;stroke-miterlimit:4;stroke-dasharray:none;stroke-dashoffset:0;stroke-opacity:1"
         d="m 92.942862,9.6945876 -1.007693,0.6370834 -0.367091,0.83865 c -0.651022,0.689316 0.368218,3.200948 0.368218,3.200948 0,0 3.189402,1.565464 4.989284,1.565464 l 3.10193,0.153181 c 0,0 3.19766,-1.033975 3.23596,-1.263747 0.0383,-0.229772 -0.11488,-1.81903 -0.19149,-2.431756 -0.0766,-0.612726 -0.12599,-1.186736 -0.13403,-1.857325 -0.4293,-0.364226 -0.71153,-0.7415502 -0.71153,-0.7415502 -0.17601,-1.0289988 -0.10419,-1.2448034 0.19341,-1.6975735 0.41946,-0.1819809 0.6056,0.025154 0.98855,-0.2620608 0,0 -0.6201,-0.3558748 -1.30942,-0.2792841 -0.68931,0.076591 -1.28369,-0.1433238 -1.28369,0.1247418 0,0.2680676 0.25437,0.198611 0.52244,0.2752017 0.26806,0.076591 0.50809,0.086845 0.50809,0.086845 -0.12186,0.3926443 -0.3371,0.8005189 -0.22878,1.6128864 0,0 -2.983591,-1.3419322 -3.240841,-1.3419322 -0.270789,0.01354 -0.297469,0.3802322 -0.730732,0.5156268 0,0 -0.502486,-0.1624735 -0.692038,-0.1083157 -0.19375,0 -0.300549,0.6243405 -0.662636,0.8274324 -0.568657,0.2707892 -3.347911,0.145484 -3.347911,0.145484 z"
         id="path957"
         inkscape:connector-curvature="0" />
      <path
         style="opacity:1;fill:#a8a9ae;fill-opacity:1;fill-rule:nonzero;stroke:none;stroke-width:1;stroke-linecap:round;stroke-linejoin:round;stroke-miterlimit:4;stroke-dasharray:none;stroke-dashoffset:0;stroke-opacity:1"
         d="m 97.040466,15.706961 v 0.727612 l 0.344659,2.106245 -0.804203,0.765908 -0.0383,0.957384 c 0,0 7.046348,-2.757267 7.046348,-2.948744 0,-0.191477 -0.38296,-0.842498 -0.38296,-0.842498 l -0.53613,-0.344658 0.15318,-0.49784 -0.57443,-0.459545 z"
         id="path959"
         inkscape:connector-curvature="0" />
      <path
         style="opacity:1;fill:#a8a9ae;fill-opacity:1;fill-rule:nonzero;stroke:none;stroke-width:1;stroke-linecap:round;stroke-linejoin:round;stroke-miterlimit:4;stroke-dasharray:none;stroke-dashoffset:0;stroke-opacity:1"
         d="m 102.97625,17.430252 c 0,0 -7.446293,1.589423 -8.042029,2.144541 0,0 0.238666,0.76823 0.306363,0.727612 0,0 -3.839558,3.041129 -4.557149,4.327377 l -0.153181,0.421249 c 1.016726,1.228544 2.847563,4.073018 5.645555,6.284442 2.567458,2.029221 6.034831,3.47407 8.600331,3.748945 l 0.84249,-0.804207 0.51098,-0.259243 c 0,0 0.36972,0.38403 1.2063,0.536135 0.63188,0.114886 1.53182,-0.191476 2.02966,-0.32551 1.39778,-0.708464 1.76759,-2.900125 1.80589,-3.436261 0.0383,-0.536135 0.0766,-1.608405 0.11488,-2.144541 0.0383,-0.536135 0.49785,-1.07227 1.18716,-1.723291 0.4733,-0.447006 -0.99568,-3.178516 -0.99568,-3.178516 l 0.42125,-0.536135 c 0,0 -1.87647,-1.187157 -1.95307,-1.608406 -0.0766,-0.421249 0.0766,-1.416929 -0.45954,-1.876473 -0.53613,-0.459545 -2.91044,-2.757266 -3.44658,-2.757266 -0.53613,0 -0.57443,0.459544 -0.72761,0.459544 -0.15318,0 -2.25943,-0.153181 -2.25943,-0.153181 z"
         id="path961"
         inkscape:connector-curvature="0" />
      <path
         style="opacity:1;fill:#a8a9ae;fill-opacity:1;fill-rule:nonzero;stroke:none;stroke-width:1;stroke-linecap:round;stroke-linejoin:round;stroke-miterlimit:4;stroke-dasharray:none;stroke-dashoffset:0;stroke-opacity:1"
         d="m 111.74589,24.323415 1.45522,1.340342 c 0,0 2.37431,-0.268068 3.06363,-0.919089 0,0 0.26806,-0.306363 -0.11489,0.727612 -0.8042,0.268068 -2.79556,0.727612 -2.79556,0.727612 l -1.14885,0.880793 -1.37864,-2.795561 z"
         id="path963"
         inkscape:connector-curvature="0" />
    </g>
  </g>
</svg>
